<svg width="56" height="56" viewBox="0 0 56 56" fill="none" xmlns="http://www.w3.org/2000/svg">
<circle cx="28" cy="28" r="28" fill="white"/>
<path d="M28 51.3334C40.8866 51.3334 51.3333 40.8867 51.3333 28C51.3333 15.1134 40.8866 4.66669 28 4.66669C15.1133 4.66669 4.66663 15.1134 4.66663 28C4.66663 40.8867 15.1133 51.3334 28 51.3334Z" fill="#3A5A99"/>
<path d="M39.3538 15.2408H16.6463C16.2736 15.2408 15.9161 15.3889 15.6525 15.6524C15.3889 15.916 15.2408 16.2735 15.2408 16.6463V39.3537C15.2408 39.7265 15.3889 40.084 15.6525 40.3476C15.9161 40.6111 16.2736 40.7592 16.6463 40.7592H28.873V30.8769H25.5295V27.0337H28.8565V24.1843C28.8565 20.8902 30.8659 19.0949 33.7977 19.0949C34.7899 19.0904 35.7815 19.1417 36.7679 19.2486V22.691H34.731C33.1279 22.691 32.8204 23.4541 32.8204 24.5686V27.0282H36.6361L36.1365 30.8714H32.8424V40.7537H39.3483C39.7211 40.7537 40.0785 40.6056 40.3421 40.3421C40.6057 40.0785 40.7538 39.721 40.7538 39.3482V16.6463C40.7538 16.2745 40.6065 15.9178 40.3441 15.6544C40.0817 15.391 39.7256 15.2422 39.3538 15.2408V15.2408Z" fill="white"/>
</svg>
