<svg width="56" height="56" viewBox="0 0 56 56" fill="none" xmlns="http://www.w3.org/2000/svg">
<circle cx="28" cy="28" r="28" fill="white"/>
<path d="M28 52C41.2548 52 52 41.2548 52 28C52 14.7452 41.2548 4 28 4C14.7452 4 4 14.7452 4 28C4 41.2548 14.7452 52 28 52Z" fill="#D50060"/>
<path d="M27.9999 16.9882C31.5858 16.9882 32.015 16.9882 33.4324 17.0673C34.2851 17.0747 35.1298 17.2314 35.9284 17.5304C36.5065 17.7548 37.0314 18.0972 37.4699 18.5357C37.9084 18.9742 38.2508 19.4991 38.4752 20.0772C38.7741 20.8758 38.9309 21.7205 38.9383 22.5732C39.0061 23.9906 39.0174 24.4198 39.0174 28.0056C39.0174 31.5915 39.0174 32.0207 38.9383 33.4381C38.9309 34.2908 38.7741 35.1355 38.4752 35.9341C38.2508 36.5122 37.9084 37.0371 37.4699 37.4756C37.0314 37.9141 36.5065 38.2565 35.9284 38.4809C35.1298 38.7799 34.2851 38.9366 33.4324 38.944C32.015 39.0118 31.5915 39.0231 27.9999 39.0231C24.4084 39.0231 23.9849 39.0231 22.5675 38.944C21.7148 38.9366 20.87 38.7799 20.0715 38.4809C19.4981 38.2526 18.9783 37.9079 18.5448 37.4685C18.1113 37.0292 17.7736 36.5048 17.5529 35.9285C17.254 35.1299 17.0973 34.2851 17.0898 33.4325C17.0221 32.0151 17.0108 31.5859 17.0108 28C17.0108 24.4141 17.0108 23.9849 17.0898 22.5675C17.0973 21.7149 17.254 20.8701 17.5529 20.0715C17.7775 19.5014 18.117 18.9836 18.5503 18.5503C18.9836 18.1171 19.5014 17.7776 20.0715 17.5529C20.87 17.254 21.7148 17.0973 22.5675 17.0899C23.9849 17.0221 24.4141 17.0108 27.9999 17.0108V16.9882ZM27.9999 14.5882C24.3519 14.5882 23.8945 14.5882 22.4602 14.6673C21.3446 14.6904 20.241 14.9023 19.1962 15.2941C18.2958 15.6371 17.4782 16.1666 16.797 16.8478C16.1157 17.5291 15.5862 18.3467 15.2432 19.2471C14.8514 20.2918 14.6395 21.3955 14.6164 22.5111C14.5543 23.9454 14.5374 24.4028 14.5374 28.0508C14.5374 31.6988 14.5374 32.1562 14.6164 33.5906C14.6614 34.692 14.8905 35.778 15.2941 36.8038C15.637 37.7041 16.1665 38.5217 16.8478 39.203C17.529 39.8842 18.3467 40.4137 19.247 40.7567C20.2918 41.1485 21.3954 41.3605 22.511 41.3835C23.9454 41.4456 24.4028 41.4626 28.0508 41.4626C31.6988 41.4626 32.1562 41.4626 33.5905 41.3835C34.7061 41.3605 35.8097 41.1485 36.8545 40.7567C37.7549 40.4137 38.5725 39.8842 39.2538 39.203C39.935 38.5217 40.4645 37.7041 40.8075 36.8038C41.1993 35.759 41.4112 34.6554 41.4343 33.5398C41.4964 32.1054 41.5134 31.648 41.5134 28C41.5134 24.352 41.5134 23.8946 41.4343 22.4602C41.4112 21.3446 41.1993 20.241 40.8075 19.1962C40.4645 18.2959 39.935 17.4783 39.2538 16.797C38.5725 16.1158 37.7549 15.5863 36.8545 15.2433C35.8097 14.8515 34.7061 14.6395 33.5905 14.6165C32.1562 14.5544 31.6988 14.5374 28.0508 14.5374L27.9999 14.5882Z" fill="white"/>
<path d="M28.0001 21.0993C26.6352 21.0993 25.3011 21.504 24.1662 22.2623C23.0314 23.0205 22.147 24.0983 21.6247 25.3592C21.1024 26.6202 20.9657 28.0077 21.232 29.3463C21.4982 30.6849 22.1555 31.9145 23.1205 32.8795C24.0856 33.8446 25.3152 34.5019 26.6538 34.7681C27.9924 35.0344 29.3799 34.8977 30.6409 34.3754C31.9018 33.8531 32.9795 32.9686 33.7378 31.8338C34.4961 30.699 34.9008 29.3648 34.9008 28C34.9008 26.1698 34.1737 24.4146 32.8796 23.1205C31.5855 21.8263 29.8303 21.0993 28.0001 21.0993ZM28.0001 32.4781C27.1144 32.4781 26.2486 32.2155 25.5122 31.7234C24.7757 31.2314 24.2018 30.532 23.8628 29.7137C23.5239 28.8954 23.4352 27.995 23.608 27.1264C23.7808 26.2577 24.2073 25.4598 24.8336 24.8335C25.4598 24.2072 26.2578 23.7807 27.1264 23.6079C27.9951 23.4351 28.8955 23.5238 29.7138 23.8628C30.532 24.2017 31.2314 24.7757 31.7235 25.5121C32.2156 26.2485 32.4782 27.1143 32.4782 28C32.4782 29.1877 32.0064 30.3267 31.1666 31.1665C30.3268 32.0063 29.1877 32.4781 28.0001 32.4781Z" fill="white"/>
<path d="M35.1718 22.4433C36.0638 22.4433 36.7869 21.7202 36.7869 20.8283C36.7869 19.9363 36.0638 19.2132 35.1718 19.2132C34.2798 19.2132 33.5568 19.9363 33.5568 20.8283C33.5568 21.7202 34.2798 22.4433 35.1718 22.4433Z" fill="white"/>
</svg>
