<svg width="56" height="56" viewBox="0 0 56 56" fill="none" xmlns="http://www.w3.org/2000/svg">
<circle cx="28" cy="28" r="28" fill="white"/>
<path d="M28 52C41.2548 52 52 41.2548 52 28C52 14.7452 41.2548 4 28 4C14.7452 4 4 14.7452 4 28C4 41.2548 14.7452 52 28 52Z" fill="#0076B2"/>
<path d="M14.9045 23.4033H20.4781V41.327H14.9045V23.4033ZM17.6941 14.4979C18.333 14.4979 18.9575 14.6873 19.4887 15.0422C20.0199 15.3972 20.4339 15.9016 20.6783 16.4919C20.9228 17.0821 20.9868 17.7316 20.8622 18.3581C20.7375 18.9847 20.4299 19.5603 19.9781 20.012C19.5264 20.4638 18.9509 20.7714 18.3243 20.896C17.6977 21.0207 17.0482 20.9567 16.458 20.7122C15.8678 20.4677 15.3633 20.0537 15.0084 19.5225C14.6534 18.9914 14.464 18.3668 14.464 17.728C14.464 16.8713 14.8043 16.0497 15.4101 15.4439C16.0158 14.8382 16.8374 14.4979 17.6941 14.4979" fill="white"/>
<path d="M23.9736 23.4033H29.3101V25.8541H29.4118C29.9463 24.9407 30.7186 24.1894 31.6465 23.6802C32.5743 23.171 33.6229 22.9231 34.6805 22.9628C40.3275 22.9628 41.3609 26.6729 41.3609 31.4955V41.327H35.7929V32.6136C35.7929 30.5355 35.759 27.8588 32.9016 27.8588C30.0442 27.8588 29.5586 30.1176 29.5586 32.4611V41.327H23.9962L23.9736 23.4033Z" fill="white"/>
</svg>
