<svg width="56" height="56" viewBox="0 0 56 56" fill="none" xmlns="http://www.w3.org/2000/svg">
<circle cx="28" cy="28" r="28" fill="white"/>
<path d="M27.9999 49.7778C40.0275 49.7778 49.7777 40.0275 49.7777 28C49.7777 15.9725 40.0275 6.22223 27.9999 6.22223C15.9724 6.22223 6.22217 15.9725 6.22217 28C6.22217 40.0275 15.9724 49.7778 27.9999 49.7778Z" fill="#BD081C"/>
<path d="M37.4388 23.8289C37.4388 29.3272 34.3643 33.4316 29.8806 33.4316C28.3434 33.4316 26.9444 32.6169 26.4577 31.6843C26.4577 31.6843 25.6429 34.9125 25.4738 35.5377C24.8692 37.736 23.0808 39.9393 22.9476 40.1238C22.9246 40.1502 22.8948 40.1698 22.8614 40.1803C22.8281 40.1908 22.7924 40.1919 22.7585 40.1834C22.7245 40.1749 22.6936 40.1572 22.6691 40.1322C22.6446 40.1072 22.6275 40.0759 22.6196 40.0418C22.5838 39.76 22.1072 36.9673 22.6658 34.7178C22.9322 33.5802 24.4643 27.0828 24.4643 27.0828C24.1612 26.3828 24.0092 25.6267 24.0185 24.864C24.0185 22.8143 25.2227 21.2412 26.719 21.2412C27.9949 21.2412 28.6098 22.1943 28.6098 23.3421C28.6098 24.6232 27.7951 26.5396 27.3749 28.3126C27.291 28.6414 27.2855 28.9854 27.3589 29.3168C27.4323 29.6482 27.5825 29.9577 27.7973 30.2204C28.0122 30.4831 28.2858 30.6917 28.596 30.8294C28.9062 30.9671 29.2444 31.03 29.5834 31.013C32.2377 31.013 34.0261 27.6054 34.0261 23.5625C34.0261 20.4879 31.9764 18.1974 28.1999 18.1974C23.9468 18.1974 21.2976 21.3642 21.2976 24.905C21.2566 25.9037 21.587 26.8822 22.2251 27.6516C22.3378 27.7438 22.418 27.8696 22.4539 28.0107C22.4899 28.1518 22.4797 28.3007 22.4249 28.4356C22.3583 28.6918 22.2046 29.3118 22.138 29.5577C22.1209 29.6307 22.088 29.6991 22.0416 29.7579C21.9952 29.8168 21.9365 29.8648 21.8695 29.8985C21.8026 29.9322 21.7291 29.9509 21.6542 29.9531C21.5792 29.9553 21.5048 29.941 21.4359 29.9113C19.4836 29.1068 18.5715 26.9649 18.5715 24.5565C18.5715 20.5751 21.9279 15.8044 28.5842 15.8044C33.9236 15.8044 37.4388 19.6732 37.4388 23.8289Z" fill="white"/>
</svg>
