<svg width="56" height="56" viewBox="0 0 56 56" fill="none" xmlns="http://www.w3.org/2000/svg">
<circle cx="28" cy="28" r="28" fill="white"/>
<path d="M28 51.3334C40.8866 51.3334 51.3333 40.8867 51.3333 28C51.3333 15.1134 40.8866 4.66669 28 4.66669C15.1133 4.66669 4.66663 15.1134 4.66663 28C4.66663 40.8867 15.1133 51.3334 28 51.3334Z" fill="#FFEA00"/>
<path d="M28.1592 40.0126H27.8407C26.3199 40.0126 25.3482 39.3208 24.4094 38.6565C23.8315 38.1742 23.1521 37.8288 22.4219 37.6463C22.0773 37.5875 21.7284 37.5581 21.3788 37.5584C20.8934 37.564 20.4098 37.6173 19.9349 37.7177C19.7547 37.7606 19.5709 37.7864 19.3858 37.7945C19.3018 37.806 19.2165 37.7852 19.1472 37.7363C19.078 37.6874 19.0298 37.614 19.0125 37.531C18.9521 37.3279 18.9082 37.1302 18.8698 36.938C18.76 36.4439 18.6831 36.142 18.4745 36.109C16.0752 35.7412 15.3835 35.2306 15.2298 34.8737C15.2096 34.8246 15.1966 34.7728 15.1913 34.72C15.1901 34.6529 15.2125 34.5875 15.2547 34.5353C15.2968 34.4831 15.3561 34.4474 15.4219 34.4345C19.1168 33.8306 20.7749 30.0424 20.8407 29.8886C20.9493 29.7132 21.0178 29.5159 21.0415 29.311C21.0652 29.106 21.0436 28.8984 20.978 28.7028C20.7199 28.1098 19.8799 27.8463 19.3309 27.6706L18.9686 27.5498C17.8705 27.1161 17.7882 26.6714 17.8266 26.4518C17.906 26.2523 18.0452 26.0824 18.2251 25.9654C18.4051 25.8484 18.6168 25.7901 18.8313 25.7984C18.9351 25.7972 19.038 25.8178 19.1333 25.8588C19.5422 26.0685 19.9918 26.1865 20.4509 26.2047C20.592 26.2172 20.7342 26.2013 20.8691 26.158C21.0039 26.1146 21.1287 26.0446 21.236 25.9522C21.236 25.7051 21.2086 25.4416 21.1866 25.1726C21.0768 23.4267 20.9396 21.2526 21.4941 20.0173C22.0212 18.8133 22.8912 17.7912 23.9954 17.0785C25.0996 16.3658 26.3893 15.994 27.7035 16.0094H28.2745C29.5902 15.9932 30.8816 16.3646 31.9878 17.0773C33.0939 17.79 33.9658 18.8125 34.4949 20.0173C35.0439 21.258 34.9121 23.4322 34.8023 25.178V25.2549C34.8023 25.4965 34.7694 25.7326 34.7584 25.9577C34.9603 26.125 35.2154 26.2146 35.4776 26.2102V26.2102C35.9095 26.1755 36.3308 26.058 36.7184 25.8643C36.8399 25.8129 36.9707 25.7867 37.1027 25.7875C37.2552 25.788 37.4062 25.8178 37.5474 25.8753V25.8753C37.7002 25.912 37.8391 25.9922 37.9473 26.1062C38.0555 26.2202 38.1282 26.3631 38.1568 26.5177C38.1568 26.7757 37.9702 27.16 37.0094 27.5388L36.647 27.6596C36.098 27.8353 35.2745 28.0988 35 28.6918C34.932 28.8867 34.9086 29.0944 34.9314 29.2996C34.9542 29.5048 35.0227 29.7023 35.1317 29.8777C35.1317 29.8777 35.1317 29.8777 35.1317 29.8777C35.1976 30.0369 36.8556 33.8141 40.5505 34.4235C40.6169 34.4354 40.6768 34.4708 40.7191 34.5232C40.7615 34.5757 40.7835 34.6417 40.7811 34.709C40.7758 34.7619 40.7629 34.8136 40.7427 34.8628C40.589 35.2196 39.9027 35.7247 37.498 36.098C37.3003 36.098 37.2235 36.3835 37.1082 36.9216C37.0643 37.1137 37.0204 37.3059 36.96 37.509C36.9452 37.5876 36.9015 37.6578 36.8374 37.7056C36.7733 37.7534 36.6936 37.7753 36.6141 37.7671H36.5866C36.402 37.7615 36.2183 37.7394 36.0376 37.7012C35.563 37.5997 35.079 37.5482 34.5937 37.5475C34.2441 37.5472 33.8951 37.5766 33.5505 37.6353C32.8217 37.817 32.1439 38.1625 31.5686 38.6455C30.6517 39.3208 29.68 40.0126 28.1592 40.0126Z" fill="white"/>
</svg>
