<svg width="56" height="56" viewBox="0 0 56 56" fill="none" xmlns="http://www.w3.org/2000/svg">
<circle cx="28" cy="28" r="28" fill="white"/>
<path d="M27.9999 49.7778C40.0275 49.7778 49.7777 40.0275 49.7777 28C49.7777 15.9725 40.0275 6.22223 27.9999 6.22223C15.9724 6.22223 6.22217 15.9725 6.22217 28C6.22217 40.0275 15.9724 49.7778 27.9999 49.7778Z" fill="black"/>
<path d="M16.9113 37.6642L16.9984 37.9153C16.983 37.8896 16.983 37.8025 16.9113 37.6642ZM20.4367 31.9661C20.4786 31.3962 20.6487 30.8431 20.9344 30.3483C21.2201 29.8534 21.6139 29.4294 22.0864 29.1082C22.559 28.7869 23.098 28.5766 23.6633 28.4929C24.2286 28.4093 24.8054 28.4545 25.3508 28.6251V25.0997C25.7862 25.0885 26.2218 25.1159 26.6523 25.1817V29.7166C26.107 29.5459 25.5301 29.5007 24.9649 29.5844C24.3996 29.668 23.8605 29.8783 23.388 30.1996C22.9154 30.5209 22.5216 30.9448 22.2359 31.4397C21.9502 31.9346 21.7801 32.4876 21.7382 33.0575C21.7033 33.955 21.9604 34.8397 22.471 35.5786C22.3173 35.4966 22.1687 35.4044 22.0098 35.3019C21.4903 34.9211 21.0743 34.4164 20.7995 33.8338C20.5248 33.2512 20.4001 32.6092 20.4367 31.9661V31.9661ZM34.0465 18.5766C33.2722 17.7104 32.7541 16.6459 32.5503 15.5021H33.7903C33.7315 17.0363 34.2844 18.5312 35.3276 19.6578L35.3532 19.6885C34.8673 19.3712 34.4232 18.9942 34.0312 18.5663L34.0465 18.5766ZM40.0418 21.7741V26.2065C39.1136 26.1634 38.1911 26.0382 37.285 25.8324C36.3449 25.5915 35.4429 25.2206 34.6051 24.7307L33.8211 24.2183V33.4009C33.7894 34.3747 33.6061 35.3376 33.2779 36.255C32.4948 38.2728 30.959 39.9078 28.9941 40.8155C27.9177 41.3188 26.7439 41.5794 25.5558 41.579C23.9174 41.5764 22.3151 41.0975 20.944 40.2006C20.4716 39.8774 20.0322 39.5084 19.6322 39.0989V39.0989C21.0018 39.9991 22.6051 40.4783 24.244 40.4773C25.4224 40.4745 26.5865 40.2175 27.6567 39.7241C28.7097 39.2352 29.6527 38.5379 30.4289 37.6744C31.0671 36.9347 31.5764 36.0928 31.9354 35.1841C32.2661 34.2673 32.4494 33.304 32.4785 32.3299V23.132C32.54 23.1627 33.2625 23.6444 33.2625 23.6444C34.1003 24.1368 35.0022 24.511 35.9425 24.7563C36.8486 24.9621 37.7711 25.0873 38.6993 25.1304V21.646C39.1369 21.7609 39.5903 21.8042 40.0418 21.7741V21.7741Z" fill="#EE1D52"/>
<path d="M38.7146 21.6408V25.1253C37.7865 25.0822 36.8639 24.957 35.9578 24.7512C35.016 24.508 34.1124 24.1355 33.2728 23.6444C33.2728 23.6444 32.5451 23.1627 32.4888 23.132V32.3145C32.4596 33.2886 32.2763 34.252 31.9456 35.1687C31.5866 36.0774 31.0774 36.9193 30.4391 37.659C29.663 38.5225 28.7199 39.2198 27.6669 39.7087C26.5967 40.2022 25.4327 40.4591 24.2542 40.462C22.6157 40.4599 21.0133 39.981 19.6424 39.0836V39.0836C18.8033 38.2493 18.1623 37.2371 17.767 36.1218V36.1218C17.439 35.1672 17.2744 34.1642 17.2802 33.1549C17.3017 31.8401 17.6447 30.5505 18.2794 29.3989C18.7797 28.5056 19.4317 27.7063 20.2061 27.0366C20.8934 26.4676 21.6688 26.0142 22.5017 25.6941C23.4049 25.3163 24.3719 25.1146 25.3508 25.0997V28.6251C24.4983 28.3698 23.5831 28.4233 22.7662 28.7763C21.9493 29.1292 21.283 29.7588 20.8845 30.5545C20.4861 31.3502 20.381 32.2609 20.5877 33.1264C20.7945 33.992 21.2999 34.7569 22.0149 35.2866C22.1738 35.389 22.3224 35.4813 22.4761 35.5633C22.7101 35.8802 22.9939 36.1571 23.3165 36.3831C23.857 36.7864 24.4978 37.0336 25.1692 37.0978C25.8405 37.1619 26.5166 37.0406 27.1237 36.7469C27.5837 36.5449 27.9961 36.2484 28.3342 35.8768C28.6722 35.5051 28.9285 35.0666 29.0863 34.5897C29.255 34.0112 29.3226 33.4079 29.2861 32.8064V15.5123H32.5451C32.7466 16.6569 33.265 17.722 34.0414 18.5868C34.4357 19.0123 34.8795 19.3891 35.3634 19.709C35.8918 20.264 36.5082 20.728 37.1876 21.0823C37.6756 21.3286 38.1919 21.5145 38.7249 21.6357L38.7146 21.6408Z" fill="white"/>
<path d="M16.4706 35.0612L16.5526 35.2969C16.5423 35.2712 16.5116 35.1893 16.4706 35.0612Z" fill="#69C9D0"/>
<path d="M22.5017 25.6941C21.6689 26.0183 20.8951 26.477 20.2112 27.052C19.4352 27.7222 18.7831 28.5235 18.2845 29.4194C17.6488 30.5707 17.3057 31.8605 17.2852 33.1754C17.2816 34.1846 17.4461 35.1873 17.772 36.1423V36.1423C18.0724 36.9397 18.4847 37.6903 18.9967 38.3714C19.2 38.6274 19.4172 38.8721 19.6475 39.1041C18.9088 38.5975 18.2507 37.9825 17.6952 37.2799C17.1823 36.605 16.7698 35.8594 16.4705 35.0663V35.0663C16.1393 34.1109 15.9763 33.1053 15.9888 32.0942C16.012 30.7754 16.353 29.4817 16.9829 28.3228C17.4864 27.4303 18.1399 26.6312 18.9147 25.9606C20.0446 25.0327 21.3887 24.4021 22.8245 24.1261C23.6609 23.9793 24.5152 23.9655 25.3558 24.0851V25.11C24.3759 25.121 23.4071 25.3192 22.5017 25.6941V25.6941Z" fill="#69C9D0"/>
<path d="M32.5502 15.5124H29.2809V32.8218C29.3149 33.4233 29.2473 34.0261 29.0811 34.6051C28.885 35.1572 28.563 35.656 28.1406 36.0621C27.7181 36.4681 27.2069 36.7701 26.6475 36.9442C26.088 37.1182 25.4957 37.1595 24.9175 37.0648C24.3393 36.9701 23.7911 36.742 23.3164 36.3985C22.9901 36.1772 22.7041 35.9016 22.4709 35.5838C22.9789 35.8684 23.5485 36.025 24.1306 36.0402C24.7127 36.0554 25.2897 35.9286 25.8119 35.6709C26.2718 35.4688 26.6842 35.1723 27.0223 34.8007C27.3604 34.4291 27.6166 33.9906 27.7744 33.5136C27.9431 32.9351 28.0107 32.3319 27.9743 31.7304V14.4209H32.4784C32.4514 14.7863 32.4756 15.1536 32.5502 15.5124ZM38.6992 20.6827V21.6409C38.1661 21.5196 37.6499 21.3338 37.1619 21.0875C36.4821 20.7273 35.8659 20.2582 35.3377 19.6988C35.5068 19.8064 35.6759 19.9038 35.8501 19.996C36.7322 20.4616 37.7173 20.6977 38.7145 20.6827H38.6992Z" fill="#69C9D0"/>
</svg>
