<svg width="56" height="56" viewBox="0 0 56 56" fill="none" xmlns="http://www.w3.org/2000/svg">
<circle cx="28" cy="28" r="28" fill="white"/>
<path d="M28 51.3334C40.8866 51.3334 51.3333 40.8867 51.3333 28C51.3333 15.1134 40.8866 4.66669 28 4.66669C15.1133 4.66669 4.66663 15.1134 4.66663 28C4.66663 40.8867 15.1133 51.3334 28 51.3334Z" fill="#55ACEE"/>
<path d="M41.0665 19.8965C40.087 20.3282 39.0492 20.6131 37.9866 20.742C39.1073 20.072 39.9449 19.0158 40.3419 17.7718C39.2901 18.3972 38.1387 18.8374 36.9379 19.073C36.2021 18.2898 35.2479 17.7458 34.1992 17.5113C33.1504 17.2768 32.0555 17.3628 31.0562 17.758C30.0568 18.1533 29.1993 18.8395 28.5946 19.7279C27.99 20.6163 27.6661 21.6658 27.665 22.7404C27.6657 23.1523 27.7117 23.5629 27.8022 23.9647C25.672 23.8606 23.5873 23.3109 21.6827 22.351C19.7781 21.3912 18.096 20.0425 16.745 18.3922C16.0637 19.569 15.8548 20.9607 16.1606 22.2857C16.4663 23.6107 17.2639 24.7701 18.392 25.5294C17.5396 25.5025 16.7059 25.2729 15.9599 24.8596V24.931C15.9608 26.169 16.39 27.3685 17.1745 28.3261C17.959 29.2838 19.0506 29.9406 20.2642 30.1851C19.4743 30.3971 18.6469 30.429 17.843 30.2785C18.1845 31.344 18.851 32.2759 19.7489 32.9435C20.6469 33.6111 21.7313 33.9808 22.8501 34.0008C20.9506 35.4861 18.6072 36.2905 16.196 36.2847C15.7684 36.2842 15.3413 36.2586 14.9167 36.2079C17.3716 37.7894 20.2318 38.6265 23.152 38.6181C33.0344 38.6181 38.4093 30.4487 38.4093 23.3663C38.4093 23.1302 38.4093 22.8996 38.4093 22.669C39.4524 21.9097 40.3522 20.9709 41.0665 19.8965Z" fill="white"/>
</svg>
