<svg width="56" height="56" viewBox="0 0 56 56" fill="none" xmlns="http://www.w3.org/2000/svg">
<circle cx="28" cy="28" r="28" fill="white"/>
<path d="M28 52C41.2548 52 52 41.2548 52 28C52 14.7452 41.2548 4 28 4C14.7452 4 4 14.7452 4 28C4 41.2548 14.7452 52 28 52Z" fill="#E52D27"/>
<path d="M41.4399 33.3647C41.4369 34.3822 41.0314 35.3572 40.3119 36.0767C39.5924 36.7962 38.6174 37.2017 37.5999 37.2047H18.3999C17.3824 37.2017 16.4074 36.7962 15.6879 36.0767C14.9684 35.3572 14.5629 34.3822 14.5599 33.3647V22.6353C14.5629 21.6178 14.9684 20.6428 15.6879 19.9233C16.4074 19.2038 17.3824 18.7983 18.3999 18.7953H37.5999C38.6174 18.7983 39.5924 19.2038 40.3119 19.9233C41.0314 20.6428 41.4369 21.6178 41.4399 22.6353V33.3647ZM25.2216 31.2866L32.4893 27.5256L25.2216 23.7647V31.2866Z" fill="white"/>
</svg>
